<svg id="at" xmlns="http://www.w3.org/2000/svg" viewBox="0 0 37.8 37.3"><defs><style>.cls-2{fill:#17456b;}</style></defs><path class="cls-2" d="M9.54,9.38c2.59-2.56,5.72-3.85,9.36-3.85s6.73,1.22,9.32,3.67,3.89,5.4,3.89,8.89c0,5-2.3,7.81-6.16,7.81-2.05,0-3.6-.97-4.14-2.66-.79,1.04-1.94,1.58-3.49,1.58-1.66,0-3.02-.58-4.14-1.73-1.12-1.19-1.66-2.63-1.66-4.36s.54-3.13,1.66-4.32c1.12-1.19,2.48-1.76,4.14-1.76,1.4,0,2.45,.47,3.13,1.4v-1.15h3.38v8.13c0,1.19,.47,1.8,1.37,1.8,1.62,0,2.45-1.58,2.45-4.75,0-2.56-.97-4.75-2.88-6.55-1.91-1.84-4.18-2.74-6.88-2.74s-5,.97-6.91,2.92c-1.91,1.91-2.84,4.25-2.84,6.95s.97,5,2.88,6.95c1.91,1.91,4.21,2.88,6.88,2.88,1.51,0,2.95-.36,4.28-1.12l1.44,2.99c-1.76,.94-3.67,1.4-5.72,1.4-3.67,0-6.8-1.3-9.36-3.85s-3.85-5.65-3.85-9.25,1.3-6.73,3.85-9.29Zm7.27,11.41c1.04,1.04,2.92,1.04,3.96,0,1.12-1.12,1.12-2.99,0-4.1-1.04-1.12-2.92-1.12-3.96,0-1.04,1.12-1.04,2.99,0,4.1Z"/></svg>