<svg id="copyright" xmlns="http://www.w3.org/2000/svg" viewBox="0 0 37.8 37.3"><path class="cls-2" d="M9.47,9.45c2.56-2.63,5.72-3.92,9.43-3.92s6.7,1.3,9.32,3.85c2.63,2.56,3.92,5.65,3.92,9.32s-1.3,6.66-3.85,9.29c-2.56,2.59-5.69,3.89-9.39,3.89s-6.7-1.26-9.32-3.82-3.92-5.65-3.92-9.36,1.26-6.62,3.82-9.25Zm-.97,9.25c0,2.84,1.01,5.29,3.06,7.34s4.5,3.06,7.34,3.06,5.29-1.01,7.31-3.06c2.05-2.05,3.06-4.5,3.06-7.34s-1.01-5.29-3.06-7.31c-2.02-2.05-4.46-3.06-7.31-3.06s-5.29,1.01-7.34,3.06c-2.05,2.02-3.06,4.46-3.06,7.31Zm16.2-4.75l-2.38,2.38c-.94-.9-2.02-1.33-3.2-1.33-2.02,0-3.6,1.55-3.6,3.6s1.58,3.67,3.6,3.67c1.26,0,2.34-.47,3.2-1.37l2.38,2.41c-1.55,1.62-3.38,2.45-5.58,2.45-2.05,0-3.82-.68-5.22-2.05-1.4-1.37-2.12-3.06-2.12-5.11s.72-3.74,2.12-5.08c1.4-1.37,3.17-2.05,5.22-2.05,2.16,0,4.03,.83,5.58,2.48Z"/></svg>