<?xml version="1.0" standalone="no"?>
<!DOCTYPE svg PUBLIC "-//W3C//DTD SVG 20010904//EN"
 "http://www.w3.org/TR/2001/REC-SVG-20010904/DTD/svg10.dtd">
<svg version="1.0" xmlns="http://www.w3.org/2000/svg"
 width="94.000000pt" height="94.000000pt" viewBox="0 0 94.000000 94.000000"
 preserveAspectRatio="xMidYMid meet">
<metadata>
Created by potrace 1.14, written by Peter Selinger 2001-2017
</metadata>
<g transform="translate(0.000000,94.000000) scale(0.100000,-0.100000)"
fill="#000000" stroke="none">
<path d="M381 820 c-198 -67 -301 -278 -235 -484 56 -178 249 -281 447 -240
31 6 59 9 61 5 3 -5 114 -6 147 -2 4 1 7 167 7 370 l0 370 -188 -1 c-150 -1
-199 -4 -239 -18z m267 -223 c3 -134 19 -119 -119 -119 -89 0 -130 17 -160 65
-30 49 -14 116 35 147 28 18 74 25 165 25 l76 0 3 -118z m-283 -222 c28 -12
76 -18 155 -20 63 -2 118 -4 123 -4 4 -1 7 -21 7 -46 0 -49 -24 -80 -69 -89
-66 -14 -85 -14 -131 -2 -98 26 -172 102 -187 192 l-6 37 34 -25 c19 -14 52
-34 74 -43z"/>
</g>
</svg>
